<svg xmlns="http://www.w3.org/2000/svg" width="245" height="26.2" viewBox="535.6 -32.2 245 26.2"><path fill="#FFF" d="M537.3-6.2v-11.2h1v4.9h6.1v-4.9h1v11.2h-1v-5.3h-6.1v5.3h-1zm11.3-3.7c0 1.7.8 3.1 2.7 3.1 1.1 0 2-.8 2.3-1.9h1c-.5 1.9-1.7 2.7-3.5 2.7-2.3 0-3.4-2-3.4-4.1 0-2.1 1.2-4.1 3.5-4.1 2.6 0 3.5 1.9 3.5 4.3h-6.1zm5-.8c-.1-1.5-.9-2.6-2.5-2.6-1.5 0-2.3 1.2-2.5 2.6h5zm7.4-1c-.1-1.2-.7-1.7-1.9-1.7-1 0-1.8.3-1.9 1.3h-1c.2-1.6 1.4-2.2 2.9-2.2 1.7 0 2.8.8 2.7 2.6V-8c0 .6 0 1.2.1 1.7h-1v-1.1.1c-.3.6-1.4 1.2-2.4 1.2-1.4 0-2.6-.9-2.6-2.4 0-1 .6-1.9 1.6-2.3 1-.4 2.4-.3 3.5-.4v-.5zm-2.3 4.9c2 0 2.4-1.7 2.3-3.3-1.3 0-4.1-.2-4.1 1.7.1 1.1.9 1.6 1.8 1.6zm6.7.6h-.9v-11.2h.9v11.2zm3.1-6.9H567v-.8h1.5v-1.7l.9-.4v2.1h1.8v.8h-1.8v5.2c0 .7.4 1.1 1 1.1.3 0 .6 0 .8-.1v.8c-.3.1-.6.1-.9.1-2 0-1.9-1.2-1.9-2.3v-4.8zm5.4.4c.6-1 1.4-1.4 2.5-1.4 2.5 0 2.7 2.3 2.7 3.1v4.8h-.9v-5c0-1.3-.8-2.1-2.1-2.1-1.5 0-2.2 1.3-2.2 2.7v4.5h-.9v-11.2h.9v4.6zm14.9 6.8c-1.8 0-3.3-1.3-3.3-3.1h1.1c0 1.7 1.3 2.2 2.8 2.2 1.2 0 2.7-.7 2.7-2.1 0-1.1-.8-1.7-1.7-1.9-1.8-.6-4.5-1.2-4.5-3.6 0-1.9 1.8-3 3.5-3 1.4 0 3.4.5 3.6 2.7h-1.1c0-1.4-1.3-1.7-2.4-1.7-1.2 0-2.6.6-2.6 1.9 0 3.2 6.3 1.7 6.3 5.6-.1 2.2-2.2 3-4.4 3zm13.1-4.2c0 2.1-1.1 4.1-3.6 4.1s-3.6-2.1-3.6-4.1 1.1-4.1 3.6-4.1 3.6 2.1 3.6 4.1zm-3.6-3.2c-1.9 0-2.6 1.8-2.6 3.3s.7 3.3 2.6 3.3c1.9 0 2.6-1.8 2.6-3.3 0-1.5-.7-3.3-2.6-3.3zm6.5 7.1h-.9v-11.2h.9v11.2zm7.7-7.7h.9v6c0 .6 0 1.2.1 1.7h-1v-1.1c-.5 1-1.4 1.4-2.4 1.4-2.5 0-2.7-2.3-2.7-3.1v-4.8h.9v5c0 1.3.8 2.1 2.1 2.1 1.5 0 2.2-1.3 2.2-2.7v-4.5zm4 .8H615v-.8h1.5v-1.7l.9-.4v2.1h1.8v.8h-1.8v5.2c0 .7.4 1.1 1 1.1.3 0 .6 0 .8-.1v.8c-.3.1-.6.1-.9.1-2 0-1.9-1.2-1.9-2.3v-4.8zm5.5-3.1h-1.1v-1.2h1.1v1.2zm-.1 2.3v7.7h-.9v-7.7h.9zm9.1 3.8c0 2.1-1.1 4.1-3.6 4.1s-3.6-2.1-3.6-4.1 1.1-4.1 3.6-4.1 3.6 2.1 3.6 4.1zm-3.6-3.2c-1.9 0-2.6 1.8-2.6 3.3s.7 3.3 2.6 3.3S630-8.5 630-10s-.7-3.3-2.6-3.3zm6.5 7.1h-.9v-6c0-.6 0-1.2-.1-1.7h1v1.1c.5-1 1.4-1.4 2.4-1.4 2.5 0 2.7 2.3 2.7 3.1v4.8h-.9v-5c0-1.3-.8-2.1-2.1-2.1-1.5 0-2.2 1.3-2.2 2.7v4.5zm10.2-8c1.4 0 2.7.5 2.8 2.1h-1c-.1-1-1-1.3-1.9-1.3-.8 0-1.7.3-1.7 1.2 0 1.1 1.5 1 3.6 1.8.8.3 1.3 1 1.3 1.8 0 1.7-1.6 2.5-3.3 2.5-1.3 0-2.9-.6-2.9-2.3h1c.1 1.2 1.1 1.5 2.1 1.5s2-.4 2-1.5-1.2-1.3-2.5-1.6c-1.2-.3-2.5-.6-2.5-2.1.2-1.5 1.7-2.1 3-2.1zM541.3-21.6c-3.1 0-5.7-2.1-5.7-5.3 0-3.2 2.6-5.3 5.7-5.3h9.5v2.5h-8.6c-1.7 0-3.1 1-3.1 2.7 0 1.8 1.4 2.7 3.1 2.7h5.1V-26h-3.7v-2.3h7.2v6.6l-9.5.1zm11.9 0v-10.5h12.2v2.5h-8.7v1.5h8.7v2.3h-8.7v1.7h8.7v2.5h-12.2zm24.8 0l-7.1-8.3v8.3h-3.3v-10.5h5.5l5.9 6.8v-6.8h3.2v10.5H578zm6.4 0v-10.5h12.2v2.5h-8.7v1.5h8.7v2.3h-8.7v1.7h8.7v2.5h-12.2zm25.8-3.6l2.7 3.6h-4l-2.4-3.3h-4.3v3.3h-3.5v-10.5h9.9c2.3 0 4.5 1.1 4.5 3.7 0 1.8-1.2 2.8-2.9 3.2zm-2.3-4.5h-5.7v2.5h5.7c.8 0 1.6-.4 1.6-1.2 0-1-.8-1.3-1.6-1.3zm20.5 8.1l-1.3-2h-8.2l-1.2 2h-4l6.9-10.5h5.1l6.9 10.5h-4.2zm-5.4-8.6h-.1l-2.6 4.1h5.3l-2.6-4.1zm10.7 8.6v-10.5h3.5v8h8.6v2.5h-12.1zm31 0h-10v-10.5h10c3.1 0 5.7 2.1 5.7 5.3-.1 3.1-2.7 5.2-5.7 5.2zm-1-8h-5.6v5.5h5.6c1.7 0 3.1-.9 3.1-2.7s-1.5-2.8-3.1-2.8zm16.3 4.3v3.7h-3.5v-3.7l-6.8-6.9h4.5l4.3 4.2 4.2-4.2h4.2l-6.9 6.9zm18.2 3.7l-6.9-7.4v7.4H688v-10.5h4.8l6.4 6.8v-6.8h3.2v10.5h-4.2zm19.8 0l-1.3-2h-8.2l-1.2 2h-4l6.9-10.5h5.1l6.9 10.5H718zm-5.4-8.6h-.1l-2.6 4.1h5.3l-2.6-4.1zm26.5 8.6v-8h-.1l-4.5 8h-3.4l-4.4-8h-.1v8h-3.3v-10.5h5.6l4 7.4h.1l4-7.4h5.5v10.5h-3.4zm5.6 0v-10.5h3.5v10.5h-3.5zm11 0c-3.1 0-5.7-2.1-5.7-5.3 0-3.2 2.6-5.3 5.7-5.3h8.7v2.5h-7.6c-1.7 0-3.1 1-3.1 2.7 0 1.8 1.4 2.7 3.1 2.7h7.6v2.5l-8.7.2zm21.4 0h-10.5V-24h9.4c.5 0 1.1-.2 1.1-.8 0-.6-.6-.8-1.1-.8h-6.4c-1.8 0-3.3-1.4-3.3-3.3s1.4-3.3 3.3-3.3h10.6v2.4h-9.5c-.5 0-.9.2-.9.7s.4.7.9.7h6.3c1.9 0 3.5 1.4 3.5 3.3.1 2.2-1.5 3.5-3.4 3.5z"/></svg>